<?xml version="1.0" standalone="no"?>
<!DOCTYPE svg PUBLIC "-//W3C//DTD SVG 20010904//EN"
 "http://www.w3.org/TR/2001/REC-SVG-20010904/DTD/svg10.dtd">
<svg version="1.0" xmlns="http://www.w3.org/2000/svg"
 width="540.000000pt" height="540.000000pt" viewBox="0 0 540.000000 540.000000"
 preserveAspectRatio="xMidYMid meet">
<metadata>
Created by potrace 1.11, written by Peter Selinger 2001-2013
</metadata>
<g transform="translate(0.000000,540.000000) scale(0.100000,-0.100000)"
fill="#000000" stroke="none">
<path d="M1150 5316 c-65 -17 -135 -70 -176 -131 -64 -95 -64 -99 -64 -607 l0
-459 -80 -90 c-105 -120 -177 -229 -249 -380 -241 -507 -275 -1146 -89 -1712
37 -114 131 -312 194 -409 64 -99 155 -209 215 -260 40 -34 60 -63 94 -135
159 -338 497 -605 953 -754 93 -30 102 -36 96 -54 -4 -11 -9 -64 -11 -117 l-5
-98 251 0 251 0 0 78 0 77 185 0 185 0 0 -77 0 -78 241 0 241 0 -5 98 c-3 53
-8 106 -11 117 -6 18 6 24 116 60 136 44 355 148 463 220 222 149 390 338 480
538 26 58 51 91 128 170 244 247 395 591 468 1062 17 109 17 495 0 615 -42
304 -124 558 -251 780 -57 99 -165 243 -229 305 l-41 39 0 461 c0 509 -1 520
-63 611 -42 63 -105 110 -175 130 l-57 17 -75 -42 c-268 -148 -593 -298 -805
-369 -529 -178 -826 -164 -1421 69 -157 62 -442 198 -600 287 -51 29 -96 52
-100 51 -5 0 -29 -6 -54 -13z"/>
</g>
</svg>
